<?xml version="1.0" encoding="utf-8"?>
<!-- Generator: Adobe Illustrator 16.0.0, SVG Export Plug-In . SVG Version: 6.00 Build 0)  -->
<!DOCTYPE svg PUBLIC "-//W3C//DTD SVG 1.1//EN" "http://www.w3.org/Graphics/SVG/1.1/DTD/svg11.dtd">
<svg version="1.1" id="Layer_1" xmlns="http://www.w3.org/2000/svg" xmlns:xlink="http://www.w3.org/1999/xlink" x="0px" y="0px"
	 width="75px" height="75px" viewBox="0 0 75 75" enable-background="new 0 0 75 75" xml:space="preserve">
<g>
	<g>
		<g>
			<g>
				<g>
					<line fill="#BC2A54" x1="20.62" y1="55.846" x2="34.876" y2="55.844"/>
					<line fill="#BC2A54" x1="25.308" y1="51.157" x2="39.564" y2="51.157"/>
				</g>
				<g>
					<line fill="#BC2A54" x1="16.884" y1="65.602" x2="25.132" y2="65.6"/>
					<line fill="#BC2A54" x1="15.835" y1="60.913" x2="29.388" y2="60.913"/>
				</g>
				<g>
					<line fill="#BC2A54" x1="30.891" y1="45.575" x2="45.147" y2="45.575"/>
					<line fill="#BC2A54" x1="35.58" y1="40.885" x2="49.836" y2="40.885"/>
				</g>
				<g>
					<line fill="#BC2A54" x1="41.163" y1="35.301" x2="55.419" y2="35.301"/>
					<line fill="#BC2A54" x1="45.851" y1="30.614" x2="58.562" y2="30.614"/>
				</g>
				<g>
					<line fill="#BC2A54" x1="50.634" y1="25.032" x2="59.44" y2="25.032"/>
					<line fill="#BC2A54" x1="49.237" y1="20.342" x2="59.44" y2="20.342"/>
				</g>
				<g>
					<line fill="#BC2A54" x1="29.777" y1="14.758" x2="57.48" y2="14.758"/>
					<line fill="#BC2A54" x1="32.583" y1="10.071" x2="52.99" y2="10.071"/>
				</g>
			</g>
			<path fill="#E83862" d="M55.082,11.395c-6.68-6.682-17.551-6.682-24.242,0c-1.967,1.967-1.967,5.162-0.006,7.133
				c1.976,1.967,5.167,1.961,7.133,0c2.755-2.756,7.232-2.756,9.982,0c2.76,2.744,2.76,7.229,0,9.982L16.541,59.924
				c-0.674,0.668-1.094,1.477-1.309,2.328c0.01,0.01,0.023,0.021,0.035,0.031c-0.117-0.004-0.217,0.012-0.277,0.072
				c-0.396,0.396,0.665,2.102,2.371,3.809c1.707,1.705,3.411,2.766,3.808,2.369c0.062-0.062,0.077-0.166,0.07-0.289l0.116,0.117
				c0.848-0.227,1.651-0.646,2.309-1.305l31.424-31.422C61.763,28.958,61.763,18.081,55.082,11.395z"/>
			<path fill="#BC2A54" d="M21.168,68.534c0.062-0.062,0.077-0.166,0.07-0.289l0.116,0.117c0.848-0.227,1.651-0.646,2.309-1.305
				l31.424-31.422c2.999-2.998,4.639-6.846,4.943-10.779c-0.305-3.936-1.945-7.789-4.949-10.795c-6.68-6.68-17.551-6.68-24.242,0
				c-0.642,0.641-1.052,1.418-1.275,2.234c0.223,0.816,0.632,1.592,1.27,2.232c1.976,1.967,5.167,1.961,7.133,0
				c2.755-2.756,7.232-2.756,9.982,0c1.721,1.711,2.367,4.098,1.943,6.32c0.424,2.223-0.223,4.611-1.943,6.33L16.541,62.59
				c-0.43,0.428-0.746,0.914-0.982,1.43c0.432,0.643,1.049,1.389,1.803,2.145C19.068,67.87,20.772,68.93,21.168,68.534z"/>
			<g>
				<path fill="#FFFFFF" d="M33.786,9.051h18.354C46.559,5.51,39.372,5.51,33.786,9.051z"/>
				<path fill="#D9F1FF" d="M57.673,14.758H29.382c-0.055,1.357,0.42,2.732,1.451,3.77c0.026,0.027,0.059,0.043,0.086,0.07h6.962
					c0.026-0.027,0.059-0.043,0.085-0.07c2.755-2.756,7.232-2.756,9.982,0c0.022,0.023,0.041,0.047,0.062,0.07h11.364
					C58.979,17.266,58.4,15.981,57.673,14.758z"/>
				<path fill="#D9F1FF" d="M59.453,28.143c0.35-1.256,0.545-2.543,0.604-3.838H49.97c-0.154,1.383-0.72,2.727-1.689,3.838H59.453z"
					/>
				<path fill="#D9F1FF" d="M42.609,33.852l-3.838,3.838h14.263l2.054-2.055c0.564-0.562,1.062-1.166,1.529-1.783H42.609z"/>
				<polygon fill="#FFFFFF" points="43.486,47.237 47.326,43.399 33.064,43.399 29.226,47.237 				"/>
				<polygon fill="#D9F1FF" points="35.73,43.399 31.892,47.237 43.486,47.237 45.005,45.717 47.326,43.399 				"/>
				<polygon fill="#FFFFFF" points="33.939,56.784 37.778,52.944 23.519,52.944 19.681,56.784 				"/>
				<polygon fill="#D9F1FF" points="33.939,56.784 36.234,54.489 37.778,52.944 26.185,52.944 22.347,56.784 				"/>
				<path fill="#D9F1FF" d="M28.231,62.491H14.937c-0.152,0.553,0.856,2.105,2.424,3.674c0.059,0.057,0.115,0.107,0.174,0.164h6.857
					L28.231,62.491z"/>
			</g>
		</g>
		<g>
			
				<path fill="none" stroke="#093260" stroke-width="1.5" stroke-linecap="round" stroke-linejoin="round" stroke-miterlimit="10" d="
				M55.082,11.395c-6.68-6.682-17.551-6.682-24.242,0c-1.967,1.967-1.967,5.162-0.006,7.133c1.976,1.967,5.167,1.961,7.133,0
				c2.755-2.756,7.232-2.756,9.982,0c2.76,2.744,2.76,7.229,0,9.982L16.541,59.924c-0.674,0.668-1.094,1.477-1.309,2.328
				c0.01,0.01,0.023,0.021,0.035,0.031c-0.117-0.004-0.217,0.012-0.277,0.072c-0.396,0.396,0.665,2.102,2.371,3.809
				c1.707,1.705,3.411,2.766,3.808,2.369c0.062-0.062,0.077-0.166,0.07-0.289l0.116,0.117c0.848-0.227,1.651-0.646,2.309-1.305
				l31.424-31.422C61.763,28.958,61.763,18.081,55.082,11.395z"/>
		</g>
	</g>
	<g>
		<g>
			<g>
				<path fill="#1BC1A9" d="M28.208,37.083c0-1.455-1.181-2.637-2.637-2.637h-2.398v-0.002h-5.274c-1.456,0-2.638-1.18-2.637-2.637
					l-0.001,6.439c0,1.457,1.182,2.637,2.638,2.637h2.397v0.002h5.275c1.456,0,2.637,1.182,2.637,2.637V37.083z"/>
				<path fill="#1BC1A9" d="M36.905,39.731c0-1.457-1.181-2.637-2.638-2.637h-2.396v-0.002h-3.662v6.43l6.059,0.01
					c1.457,0,2.638,1.182,2.638,2.637V39.731z"/>
				<path fill="#0CAFAF" d="M36.905,43.108v-3.377c0-1.457-1.181-2.637-2.638-2.637h-2.168c-0.084,0.67-0.141,1.359-0.141,2.072
					c0,1.574,0.227,3.047,0.61,4.363l1.698,0.002c0.884,0,1.66,0.438,2.141,1.105C36.597,44.155,36.766,43.647,36.905,43.108z"/>
				
					<path fill="none" stroke="#093260" stroke-width="1.5" stroke-linecap="round" stroke-linejoin="round" stroke-miterlimit="10" d="
					M28.208,37.083c0-1.455-1.181-2.637-2.637-2.637h-2.398v-0.002h-5.274c-1.456,0-2.638-1.18-2.637-2.637l-0.001,6.439
					c0,1.457,1.182,2.637,2.638,2.637h2.397v0.002h5.275c1.456,0,2.637,1.182,2.637,2.637V37.083z"/>
				
					<path fill="none" stroke="#093260" stroke-width="1.5" stroke-linecap="round" stroke-linejoin="round" stroke-miterlimit="10" d="
					M36.905,39.731c0-1.457-1.181-2.637-2.638-2.637h-2.396v-0.002h-3.662v6.43l6.059,0.01c1.457,0,2.638,1.182,2.638,2.637V39.731z
					"/>
			</g>
			<g>
				<path fill="#1BC1A9" d="M46.006,54.881c1.456-0.002,2.637,1.18,2.637,2.637v2.398h0.002v5.273c0,1.457,1.181,2.639,2.637,2.637
					l-6.438,0.002c-1.456,0-2.637-1.182-2.637-2.639l-0.001,0.781h-0.001v-8.453c0-1.457-1.182-2.637-2.637-2.637H46.006z"/>
				<path fill="#1BC1A9" d="M43.359,46.184c1.457,0,2.638,1.182,2.638,2.637v2.398h0.001v3.662h-6.43l-0.01-6.061
					c0-1.455-1.182-2.637-2.637-2.637H43.359z"/>
				<path fill="#0CAFAF" d="M39.982,46.184h3.377c1.457,0,2.638,1.182,2.638,2.637v2.17c-0.671,0.084-1.36,0.141-2.074,0.141
					c-1.573,0-3.046-0.227-4.362-0.611l-0.002-1.699c0-0.883-0.438-1.66-1.105-2.139C38.935,46.493,39.443,46.323,39.982,46.184z"/>
				
					<path fill="none" stroke="#093260" stroke-width="1.5" stroke-linecap="round" stroke-linejoin="round" stroke-miterlimit="10" d="
					M46.006,54.881c1.456-0.002,2.637,1.18,2.637,2.637v2.398h0.002v5.273c0,1.457,1.181,2.639,2.637,2.637l-6.438,0.002
					c-1.456,0-2.637-1.182-2.637-2.639l-0.001,0.781h-0.001v-8.453c0-1.457-1.182-2.637-2.637-2.637H46.006z"/>
				
					<path fill="none" stroke="#093260" stroke-width="1.5" stroke-linecap="round" stroke-linejoin="round" stroke-miterlimit="10" d="
					M43.359,46.184c1.457,0,2.638,1.182,2.638,2.637v2.398h0.001v3.662h-6.43l-0.01-6.061c0-1.455-1.182-2.637-2.637-2.637H43.359z"
					/>
			</g>
		</g>
		<g>
			<g>
				<path fill="#1BC1A9" d="M45.293,35.356c0-5.418-2.556-9.809-5.71-9.809c-1.096,0-2.116,0.539-2.986,1.459
					c1.633,1.729,2.725,4.816,2.725,8.35c0,3.535-1.092,6.623-2.725,8.35c0.87,0.92,1.891,1.459,2.986,1.459
					C42.738,45.165,45.293,40.774,45.293,35.356z"/>
				<path fill="#0CAFAF" d="M38.393,25.788c-0.644,0.24-1.252,0.645-1.796,1.219c1.633,1.729,2.725,4.816,2.725,8.35
					c0,3.535-1.092,6.623-2.725,8.35c0.544,0.574,1.152,0.98,1.796,1.219c2.554-0.979,4.465-4.887,4.465-9.568
					S40.947,26.766,38.393,25.788z"/>
				<g>
					<path fill="#F26606" d="M40.306,25.633c0.074,0.018,0.148,0.037,0.223,0.059C40.455,25.67,40.38,25.651,40.306,25.633z"/>
					<path fill="#F26606" d="M37.181,26.479c-0.166,0.133-0.328,0.277-0.484,0.438C36.854,26.758,37.015,26.612,37.181,26.479z"/>
					<path fill="#F26606" d="M38.129,25.887c0.171-0.078,0.345-0.145,0.522-0.195C38.474,25.743,38.3,25.809,38.129,25.887z"/>
					<path fill="#F26606" d="M38.875,25.633c0.223-0.047,0.448-0.08,0.678-0.082C39.323,25.555,39.097,25.586,38.875,25.633z"/>
					<path fill="#F26606" d="M37.316,26.366c0.207-0.156,0.423-0.291,0.643-0.404C37.739,26.075,37.524,26.209,37.316,26.366z"/>
					<path fill="#F26606" d="M41.051,25.887c0.056,0.025,0.114,0.045,0.169,0.074C41.166,25.932,41.107,25.913,41.051,25.887z"/>
					<path fill="#F26606" d="M42.583,43.706c-0.002-0.002-0.003-0.006-0.007-0.008c-0.03,0.033-0.062,0.066-0.093,0.098
						C42.515,43.762,42.55,43.739,42.583,43.706z"/>
					<path fill="#F26606" d="M42.576,27.014c0.003-0.002,0.005-0.006,0.007-0.008c-0.032-0.033-0.067-0.057-0.099-0.09
						C42.514,26.948,42.545,26.981,42.576,27.014z"/>
					<path fill="#F26606" d="M39.628,25.551c-0.011,0-0.021-0.004-0.032-0.004c-0.002,0-0.003,0-0.006,0
						C39.603,25.547,39.615,25.551,39.628,25.551z"/>
					<path fill="#F26606" d="M41.865,26.366c0.047,0.035,0.09,0.076,0.136,0.113C41.955,26.442,41.912,26.401,41.865,26.366z"/>
					<path fill="#F26606" d="M41.865,44.346c0.047-0.035,0.09-0.076,0.136-0.113C41.955,44.27,41.911,44.311,41.865,44.346z"/>
					<path fill="#F26606" d="M41.051,44.825c0.056-0.025,0.114-0.045,0.17-0.074C41.166,44.78,41.107,44.799,41.051,44.825z"/>
					<path fill="#F26606" d="M39.59,45.165c0.003,0,0.004,0,0.006,0c0.011,0,0.021-0.004,0.032-0.004
						C39.616,45.161,39.603,45.165,39.59,45.165z"/>
					<path fill="#F26606" d="M40.306,45.079c0.074-0.016,0.148-0.037,0.223-0.059C40.455,45.04,40.38,45.061,40.306,45.079z"/>
					<path fill="#F26606" d="M39.552,45.161c-0.23-0.002-0.455-0.035-0.678-0.082C39.097,45.125,39.323,45.159,39.552,45.161z"/>
					<path fill="#F26606" d="M37.958,44.75c-0.22-0.113-0.435-0.248-0.643-0.406C37.524,44.502,37.739,44.637,37.958,44.75z"/>
					<path fill="#F26606" d="M36.697,43.795c0.157,0.16,0.318,0.305,0.484,0.439C37.015,44.1,36.853,43.954,36.697,43.795z"/>
					<path fill="#F26606" d="M38.652,45.02c-0.178-0.051-0.352-0.115-0.522-0.195C38.3,44.905,38.474,44.969,38.652,45.02z"/>
					<path fill="#109BAD" d="M39.322,35.356c0-3.529-1.089-6.613-2.719-8.342c-1.628,1.729-2.717,4.812-2.717,8.342
						s1.089,6.613,2.717,8.342C38.233,41.969,39.322,38.885,39.322,35.356z"/>
					<path fill="#0E7987" d="M38.097,29.317c-0.764,1.664-1.225,3.756-1.225,6.039c0,2.285,0.461,4.375,1.225,6.039
						c0.764-1.664,1.225-3.754,1.225-6.039C39.322,33.073,38.861,30.981,38.097,29.317z"/>
				</g>
				
					<path fill="none" stroke="#093260" stroke-width="1.5" stroke-linecap="round" stroke-linejoin="round" stroke-miterlimit="10" d="
					M45.293,35.356c0-5.418-2.556-9.809-5.71-9.809c-1.096,0-2.116,0.539-2.986,1.459c1.633,1.729,2.725,4.816,2.725,8.35
					c0,3.535-1.092,6.623-2.725,8.35c0.87,0.92,1.891,1.459,2.986,1.459C42.738,45.165,45.293,40.774,45.293,35.356z"/>
				<g>
					
						<path fill="none" stroke="#093260" stroke-width="1.5" stroke-linecap="round" stroke-linejoin="round" stroke-miterlimit="10" d="
						M40.306,25.633c0.074,0.018,0.148,0.037,0.223,0.059C40.455,25.67,40.38,25.651,40.306,25.633z"/>
					
						<path fill="none" stroke="#093260" stroke-width="1.5" stroke-linecap="round" stroke-linejoin="round" stroke-miterlimit="10" d="
						M37.181,26.479c-0.166,0.133-0.328,0.277-0.484,0.438C36.854,26.758,37.015,26.612,37.181,26.479z"/>
					
						<path fill="none" stroke="#093260" stroke-width="1.5" stroke-linecap="round" stroke-linejoin="round" stroke-miterlimit="10" d="
						M38.129,25.887c0.171-0.078,0.345-0.145,0.522-0.195C38.474,25.743,38.3,25.809,38.129,25.887z"/>
					
						<path fill="none" stroke="#093260" stroke-width="1.5" stroke-linecap="round" stroke-linejoin="round" stroke-miterlimit="10" d="
						M38.875,25.633c0.223-0.047,0.448-0.08,0.678-0.082C39.323,25.555,39.097,25.586,38.875,25.633z"/>
					
						<path fill="none" stroke="#093260" stroke-width="1.5" stroke-linecap="round" stroke-linejoin="round" stroke-miterlimit="10" d="
						M37.316,26.366c0.207-0.156,0.423-0.291,0.643-0.404C37.739,26.075,37.524,26.209,37.316,26.366z"/>
					
						<path fill="none" stroke="#093260" stroke-width="1.5" stroke-linecap="round" stroke-linejoin="round" stroke-miterlimit="10" d="
						M41.051,25.887c0.056,0.025,0.114,0.045,0.169,0.074C41.166,25.932,41.107,25.913,41.051,25.887z"/>
					
						<path fill="none" stroke="#093260" stroke-width="1.5" stroke-linecap="round" stroke-linejoin="round" stroke-miterlimit="10" d="
						M42.583,43.706c-0.002-0.002-0.003-0.006-0.007-0.008c-0.03,0.033-0.062,0.066-0.093,0.098
						C42.515,43.762,42.55,43.739,42.583,43.706z"/>
					
						<path fill="none" stroke="#093260" stroke-width="1.5" stroke-linecap="round" stroke-linejoin="round" stroke-miterlimit="10" d="
						M42.576,27.014c0.003-0.002,0.005-0.006,0.007-0.008c-0.032-0.033-0.067-0.057-0.099-0.09
						C42.514,26.948,42.545,26.981,42.576,27.014z"/>
					
						<path fill="none" stroke="#093260" stroke-width="1.5" stroke-linecap="round" stroke-linejoin="round" stroke-miterlimit="10" d="
						M39.628,25.551c-0.011,0-0.021-0.004-0.032-0.004c-0.002,0-0.003,0-0.006,0C39.603,25.547,39.615,25.551,39.628,25.551z"/>
					
						<path fill="none" stroke="#093260" stroke-width="1.5" stroke-linecap="round" stroke-linejoin="round" stroke-miterlimit="10" d="
						M41.865,26.366c0.047,0.035,0.09,0.076,0.136,0.113C41.955,26.442,41.912,26.401,41.865,26.366z"/>
					
						<path fill="none" stroke="#093260" stroke-width="1.5" stroke-linecap="round" stroke-linejoin="round" stroke-miterlimit="10" d="
						M41.865,44.346c0.047-0.035,0.09-0.076,0.136-0.113C41.955,44.27,41.911,44.311,41.865,44.346z"/>
					
						<path fill="none" stroke="#093260" stroke-width="1.5" stroke-linecap="round" stroke-linejoin="round" stroke-miterlimit="10" d="
						M41.051,44.825c0.056-0.025,0.114-0.045,0.17-0.074C41.166,44.78,41.107,44.799,41.051,44.825z"/>
					
						<path fill="none" stroke="#093260" stroke-width="1.5" stroke-linecap="round" stroke-linejoin="round" stroke-miterlimit="10" d="
						M39.59,45.165c0.003,0,0.004,0,0.006,0c0.011,0,0.021-0.004,0.032-0.004C39.616,45.161,39.603,45.165,39.59,45.165z"/>
					
						<path fill="none" stroke="#093260" stroke-width="1.5" stroke-linecap="round" stroke-linejoin="round" stroke-miterlimit="10" d="
						M40.306,45.079c0.074-0.016,0.148-0.037,0.223-0.059C40.455,45.04,40.38,45.061,40.306,45.079z"/>
					
						<path fill="none" stroke="#093260" stroke-width="1.5" stroke-linecap="round" stroke-linejoin="round" stroke-miterlimit="10" d="
						M39.552,45.161c-0.23-0.002-0.455-0.035-0.678-0.082C39.097,45.125,39.323,45.159,39.552,45.161z"/>
					
						<path fill="none" stroke="#093260" stroke-width="1.5" stroke-linecap="round" stroke-linejoin="round" stroke-miterlimit="10" d="
						M37.958,44.75c-0.22-0.113-0.435-0.248-0.643-0.406C37.524,44.502,37.739,44.637,37.958,44.75z"/>
					
						<path fill="none" stroke="#093260" stroke-width="1.5" stroke-linecap="round" stroke-linejoin="round" stroke-miterlimit="10" d="
						M36.697,43.795c0.157,0.16,0.318,0.305,0.484,0.439C37.015,44.1,36.853,43.954,36.697,43.795z"/>
					
						<path fill="none" stroke="#093260" stroke-width="1.5" stroke-linecap="round" stroke-linejoin="round" stroke-miterlimit="10" d="
						M38.652,45.02c-0.178-0.051-0.352-0.115-0.522-0.195C38.3,44.905,38.474,44.969,38.652,45.02z"/>
					
						<path fill="none" stroke="#093260" stroke-width="1.5" stroke-linecap="round" stroke-linejoin="round" stroke-miterlimit="10" d="
						M39.322,35.356c0-3.529-1.089-6.613-2.719-8.342c-1.628,1.729-2.717,4.812-2.717,8.342s1.089,6.613,2.717,8.342
						C38.233,41.969,39.322,38.885,39.322,35.356z"/>
				</g>
			</g>
			<g>
				<path fill="#1BC1A9" d="M47.734,37.795c5.417,0,9.809,2.557,9.809,5.711c0,1.096-0.54,2.115-1.46,2.986
					c-1.728-1.633-4.815-2.725-8.349-2.725c-3.535,0-6.623,1.092-8.35,2.725c-0.92-0.871-1.459-1.891-1.459-2.986
					C37.925,40.352,42.316,37.795,47.734,37.795z"/>
				<path fill="#0CAFAF" d="M57.301,44.696c-0.239,0.645-0.644,1.252-1.219,1.797c-1.728-1.633-4.815-2.725-8.349-2.725
					c-3.535,0-6.623,1.092-8.35,2.725c-0.575-0.545-0.98-1.152-1.219-1.797c0.978-2.553,4.887-4.465,9.568-4.465
					S56.324,42.143,57.301,44.696z"/>
				<g>
					<path fill="#F26606" d="M57.456,42.784c-0.017-0.074-0.037-0.148-0.059-0.223C57.418,42.635,57.439,42.709,57.456,42.784z"/>
					<path fill="#F26606" d="M56.611,45.909c-0.133,0.166-0.278,0.328-0.438,0.484C56.332,46.235,56.478,46.075,56.611,45.909z"/>
					<path fill="#F26606" d="M57.203,44.959c0.078-0.17,0.144-0.344,0.194-0.521C57.346,44.616,57.281,44.79,57.203,44.959z"/>
					<path fill="#F26606" d="M57.456,44.215c0.049-0.223,0.081-0.449,0.083-0.678C57.535,43.766,57.504,43.993,57.456,44.215z"/>
					<path fill="#F26606" d="M56.723,45.774c0.157-0.207,0.291-0.424,0.405-0.643C57.015,45.35,56.88,45.565,56.723,45.774z"/>
					<path fill="#F26606" d="M57.203,42.038c-0.025-0.055-0.046-0.113-0.074-0.168C57.157,41.924,57.177,41.983,57.203,42.038z"/>
					<path fill="#F26606" d="M39.384,40.506c0.002,0.002,0.006,0.004,0.008,0.008c-0.033,0.029-0.066,0.061-0.098,0.092
						C39.327,40.575,39.351,40.54,39.384,40.506z"/>
					<path fill="#F26606" d="M56.076,40.514c0.002-0.004,0.005-0.006,0.007-0.008c0.034,0.033,0.058,0.068,0.09,0.1
						C56.141,40.575,56.108,40.543,56.076,40.514z"/>
					<path fill="#F26606" d="M57.539,43.461c0,0.01,0.004,0.021,0.004,0.031c0,0.002-0.001,0.004,0,0.006
						C57.542,43.487,57.539,43.475,57.539,43.461z"/>
					<path fill="#F26606" d="M56.723,41.225c-0.034-0.047-0.075-0.09-0.112-0.137C56.648,41.135,56.689,41.178,56.723,41.225z"/>
					<path fill="#F26606" d="M38.744,41.225c0.035-0.047,0.076-0.09,0.113-0.137C38.82,41.135,38.779,41.178,38.744,41.225z"/>
					<path fill="#F26606" d="M38.264,42.038c0.025-0.055,0.046-0.113,0.075-0.17C38.31,41.924,38.29,41.983,38.264,42.038z"/>
					<path fill="#F26606" d="M37.925,43.499c0-0.002,0-0.004,0-0.006c0-0.01,0.004-0.021,0.004-0.031
						C37.928,43.473,37.925,43.487,37.925,43.499z"/>
					<path fill="#F26606" d="M38.011,42.784c0.017-0.074,0.037-0.148,0.059-0.223C38.048,42.635,38.028,42.709,38.011,42.784z"/>
					<path fill="#F26606" d="M37.929,43.538c0.002,0.23,0.034,0.455,0.082,0.678C37.963,43.993,37.931,43.766,37.929,43.538z"/>
					<path fill="#F26606" d="M38.339,45.131c0.113,0.219,0.248,0.434,0.404,0.643C38.587,45.565,38.453,45.35,38.339,45.131z"/>
					<path fill="#F26606" d="M39.294,46.393c-0.16-0.158-0.305-0.318-0.439-0.484C38.99,46.075,39.135,46.237,39.294,46.393z"/>
					<path fill="#F26606" d="M38.07,44.438c0.051,0.178,0.115,0.352,0.194,0.521C38.185,44.79,38.121,44.616,38.07,44.438z"/>
					<path fill="#109BAD" d="M47.734,43.768c3.529,0,6.613,1.09,8.342,2.719c-1.729,1.627-4.812,2.717-8.342,2.717
						s-6.614-1.09-8.342-2.717C41.12,44.858,44.205,43.768,47.734,43.768z"/>
					<path fill="#0E7987" d="M53.773,44.993c-1.664,0.764-3.756,1.225-6.039,1.225c-2.285,0-4.375-0.461-6.039-1.225
						c1.664-0.764,3.754-1.225,6.039-1.225C50.017,43.768,52.109,44.229,53.773,44.993z"/>
				</g>
				
					<path fill="none" stroke="#093260" stroke-width="1.5" stroke-linecap="round" stroke-linejoin="round" stroke-miterlimit="10" d="
					M47.734,37.795c5.417,0,9.809,2.557,9.809,5.711c0,1.096-0.54,2.115-1.46,2.986c-1.728-1.633-4.815-2.725-8.349-2.725
					c-3.535,0-6.623,1.092-8.35,2.725c-0.92-0.871-1.459-1.891-1.459-2.986C37.925,40.352,42.316,37.795,47.734,37.795z"/>
				<g>
					
						<path fill="none" stroke="#093260" stroke-width="1.5" stroke-linecap="round" stroke-linejoin="round" stroke-miterlimit="10" d="
						M57.456,42.784c-0.017-0.074-0.037-0.148-0.059-0.223C57.418,42.635,57.439,42.709,57.456,42.784z"/>
					
						<path fill="none" stroke="#093260" stroke-width="1.5" stroke-linecap="round" stroke-linejoin="round" stroke-miterlimit="10" d="
						M56.611,45.909c-0.133,0.166-0.278,0.328-0.438,0.484C56.332,46.235,56.478,46.075,56.611,45.909z"/>
					
						<path fill="none" stroke="#093260" stroke-width="1.5" stroke-linecap="round" stroke-linejoin="round" stroke-miterlimit="10" d="
						M57.203,44.959c0.078-0.17,0.144-0.344,0.194-0.521C57.346,44.616,57.281,44.79,57.203,44.959z"/>
					
						<path fill="none" stroke="#093260" stroke-width="1.5" stroke-linecap="round" stroke-linejoin="round" stroke-miterlimit="10" d="
						M57.456,44.215c0.049-0.223,0.081-0.449,0.083-0.678C57.535,43.766,57.504,43.993,57.456,44.215z"/>
					
						<path fill="none" stroke="#093260" stroke-width="1.5" stroke-linecap="round" stroke-linejoin="round" stroke-miterlimit="10" d="
						M56.723,45.774c0.157-0.207,0.291-0.424,0.405-0.643C57.015,45.35,56.88,45.565,56.723,45.774z"/>
					
						<path fill="none" stroke="#093260" stroke-width="1.5" stroke-linecap="round" stroke-linejoin="round" stroke-miterlimit="10" d="
						M57.203,42.038c-0.025-0.055-0.046-0.113-0.074-0.168C57.157,41.924,57.177,41.983,57.203,42.038z"/>
					
						<path fill="none" stroke="#093260" stroke-width="1.5" stroke-linecap="round" stroke-linejoin="round" stroke-miterlimit="10" d="
						M39.384,40.506c0.002,0.002,0.006,0.004,0.008,0.008c-0.033,0.029-0.066,0.061-0.098,0.092
						C39.327,40.575,39.351,40.54,39.384,40.506z"/>
					
						<path fill="none" stroke="#093260" stroke-width="1.5" stroke-linecap="round" stroke-linejoin="round" stroke-miterlimit="10" d="
						M56.076,40.514c0.002-0.004,0.005-0.006,0.007-0.008c0.034,0.033,0.058,0.068,0.09,0.1
						C56.141,40.575,56.108,40.543,56.076,40.514z"/>
					
						<path fill="none" stroke="#093260" stroke-width="1.5" stroke-linecap="round" stroke-linejoin="round" stroke-miterlimit="10" d="
						M57.539,43.461c0,0.01,0.004,0.021,0.004,0.031c0,0.002-0.001,0.004,0,0.006C57.542,43.487,57.539,43.475,57.539,43.461z"/>
					
						<path fill="none" stroke="#093260" stroke-width="1.5" stroke-linecap="round" stroke-linejoin="round" stroke-miterlimit="10" d="
						M56.723,41.225c-0.034-0.047-0.075-0.09-0.112-0.137C56.648,41.135,56.689,41.178,56.723,41.225z"/>
					
						<path fill="none" stroke="#093260" stroke-width="1.5" stroke-linecap="round" stroke-linejoin="round" stroke-miterlimit="10" d="
						M38.744,41.225c0.035-0.047,0.076-0.09,0.113-0.137C38.82,41.135,38.779,41.178,38.744,41.225z"/>
					
						<path fill="none" stroke="#093260" stroke-width="1.5" stroke-linecap="round" stroke-linejoin="round" stroke-miterlimit="10" d="
						M38.264,42.038c0.025-0.055,0.046-0.113,0.075-0.17C38.31,41.924,38.29,41.983,38.264,42.038z"/>
					
						<path fill="none" stroke="#093260" stroke-width="1.5" stroke-linecap="round" stroke-linejoin="round" stroke-miterlimit="10" d="
						M37.925,43.499c0-0.002,0-0.004,0-0.006c0-0.01,0.004-0.021,0.004-0.031C37.928,43.473,37.925,43.487,37.925,43.499z"/>
					
						<path fill="none" stroke="#093260" stroke-width="1.5" stroke-linecap="round" stroke-linejoin="round" stroke-miterlimit="10" d="
						M38.011,42.784c0.017-0.074,0.037-0.148,0.059-0.223C38.048,42.635,38.028,42.709,38.011,42.784z"/>
					
						<path fill="none" stroke="#093260" stroke-width="1.5" stroke-linecap="round" stroke-linejoin="round" stroke-miterlimit="10" d="
						M37.929,43.538c0.002,0.23,0.034,0.455,0.082,0.678C37.963,43.993,37.931,43.766,37.929,43.538z"/>
					
						<path fill="none" stroke="#093260" stroke-width="1.5" stroke-linecap="round" stroke-linejoin="round" stroke-miterlimit="10" d="
						M38.339,45.131c0.113,0.219,0.248,0.434,0.404,0.643C38.587,45.565,38.453,45.35,38.339,45.131z"/>
					
						<path fill="none" stroke="#093260" stroke-width="1.5" stroke-linecap="round" stroke-linejoin="round" stroke-miterlimit="10" d="
						M39.294,46.393c-0.16-0.158-0.305-0.318-0.439-0.484C38.99,46.075,39.135,46.237,39.294,46.393z"/>
					
						<path fill="none" stroke="#093260" stroke-width="1.5" stroke-linecap="round" stroke-linejoin="round" stroke-miterlimit="10" d="
						M38.07,44.438c0.051,0.178,0.115,0.352,0.194,0.521C38.185,44.79,38.121,44.616,38.07,44.438z"/>
					
						<path fill="none" stroke="#093260" stroke-width="1.5" stroke-linecap="round" stroke-linejoin="round" stroke-miterlimit="10" d="
						M47.734,43.768c3.529,0,6.613,1.09,8.342,2.719c-1.729,1.627-4.812,2.717-8.342,2.717s-6.614-1.09-8.342-2.717
						C41.12,44.858,44.205,43.768,47.734,43.768z"/>
				</g>
			</g>
		</g>
		<path fill="#1BC1A9" d="M41.507,46.178c-1.27,1.27-3.326,1.27-4.596,0l0,0c-1.27-1.27-1.27-3.326,0-4.596l6.937-6.936
			c1.269-1.27,3.325-1.27,4.595,0l0,0c1.27,1.27,1.27,3.326,0,4.594L41.507,46.178z"/>
		<path fill="#0CAFAF" d="M46.07,37.02c-1.269-1.27-3.326-1.27-4.595,0l-4.563,4.562c-1.27,1.27-1.27,3.326,0,4.596
			s3.326,1.27,4.596,0l4.562-4.564C47.339,40.346,47.339,38.288,46.07,37.02z"/>
		
			<path fill="none" stroke="#093260" stroke-width="1.5" stroke-linecap="round" stroke-linejoin="round" stroke-miterlimit="10" d="
			M41.507,46.178c-1.27,1.27-3.326,1.27-4.596,0l0,0c-1.27-1.27-1.27-3.326,0-4.596l6.937-6.936c1.269-1.27,3.325-1.27,4.595,0l0,0
			c1.27,1.27,1.27,3.326,0,4.594L41.507,46.178z"/>
		
			<path fill="none" stroke="#093260" stroke-width="1.5" stroke-linecap="round" stroke-linejoin="round" stroke-miterlimit="10" d="
			M40.75,37.745c1.27-1.27,3.326-1.27,4.596,0l0,0c1.27,1.27,1.27,3.326,0,4.596"/>
		
			<path fill="none" stroke="#093260" stroke-width="1.5" stroke-linecap="round" stroke-linejoin="round" stroke-miterlimit="10" d="
			M36.851,41.643c1.27-1.268,3.326-1.268,4.595,0l0,0c1.269,1.27,1.269,3.326,0,4.596"/>
	</g>
</g>
</svg>
