<?xml version="1.0" encoding="utf-8"?>
<!-- Generator: Adobe Illustrator 16.0.0, SVG Export Plug-In . SVG Version: 6.00 Build 0)  -->
<!DOCTYPE svg PUBLIC "-//W3C//DTD SVG 1.1//EN" "http://www.w3.org/Graphics/SVG/1.1/DTD/svg11.dtd">
<svg version="1.1" id="Layer_1" xmlns="http://www.w3.org/2000/svg" xmlns:xlink="http://www.w3.org/1999/xlink" x="0px" y="0px"
	 width="75px" height="75px" viewBox="0 0 75 75" enable-background="new 0 0 75 75" xml:space="preserve">
<g>
	<g>
		<path fill="#00E2BC" d="M48.559,20.25v-5.705H26.441v5.705c-8.539,4.117-14.43,12.855-14.43,22.969
			c0,14.078,11.411,25.49,25.488,25.49c14.078,0,25.488-11.412,25.488-25.49C62.988,33.105,57.098,24.367,48.559,20.25z"/>
		<path fill="#0CAFAF" d="M12.055,44.66C12.802,58.068,23.906,68.709,37.5,68.709S62.198,58.068,62.945,44.66
			c-0.44-9.607-6.184-17.83-14.387-21.785V20.25v-3.08H26.441v3.08v2.625C18.238,26.83,12.495,35.053,12.055,44.66z"/>
		<path fill="#1BC1A9" d="M37.5,17.17H26.441v3.08v2.625C18.238,26.83,12.495,35.053,12.055,44.66
			C12.802,58.068,23.906,68.709,37.5,68.709V17.17z"/>
		<g>
			<path fill="#F9646E" d="M61.433,35.164c-3.474,0-6.394,2.385-7.229,5.602c0.337,0.238,0.572,0.613,0.572,1.057
				c0,0.658-0.494,1.184-1.125,1.281c-0.061,0.025-0.126,0.039-0.195,0.039s-0.135-0.014-0.195-0.039
				c-0.631-0.098-1.125-0.623-1.125-1.281c0-0.443,0.235-0.818,0.572-1.057c-0.836-3.217-3.756-5.602-7.23-5.602
				c-3.473,0-6.393,2.385-7.229,5.602c0.337,0.238,0.572,0.613,0.572,1.057c0,0.658-0.494,1.184-1.125,1.281
				c-0.061,0.025-0.126,0.039-0.195,0.039s-0.135-0.014-0.195-0.039c-0.631-0.098-1.125-0.623-1.125-1.281
				c0-0.443,0.235-0.818,0.572-1.057c-0.836-3.217-3.756-5.602-7.229-5.602s-6.394,2.385-7.229,5.602
				c0.337,0.238,0.571,0.613,0.571,1.057c0,0.658-0.493,1.184-1.124,1.281c-0.061,0.025-0.126,0.039-0.195,0.039
				s-0.135-0.014-0.195-0.039c-0.631-0.098-1.125-0.623-1.125-1.281c0-0.443,0.235-0.818,0.572-1.057
				c-0.836-3.217-3.756-5.602-7.229-5.602c-0.081,0-0.153-0.023-0.222-0.057c-0.855,2.551-1.334,5.273-1.334,8.111
				c0,1.809,0.191,3.572,0.549,5.275c0.084-0.158,0.245-0.27,0.438-0.27c3.771,0,6.978,2.424,8.167,5.793
				c1.189-3.369,4.396-5.793,8.167-5.793c3.771,0,6.979,2.424,8.168,5.793c1.189-3.369,4.396-5.793,8.167-5.793
				s6.979,2.424,8.168,5.793c1.189-3.369,4.396-5.793,8.167-5.793c0.192,0,0.354,0.111,0.438,0.27
				c0.357-1.703,0.549-3.467,0.549-5.275c0-2.838-0.479-5.561-1.334-8.111C61.586,35.141,61.514,35.164,61.433,35.164z"/>
		</g>
		<path fill="#E83862" d="M61.433,35.164c-3.474,0-6.394,2.385-7.229,5.602c0.337,0.238,0.572,0.613,0.572,1.057
			c0,0.658-0.494,1.184-1.125,1.281c-0.061,0.025-0.126,0.039-0.195,0.039s-0.135-0.014-0.195-0.039
			c-0.631-0.098-1.125-0.623-1.125-1.281c0-0.443,0.235-0.818,0.572-1.057c-0.836-3.217-3.756-5.602-7.23-5.602
			c-3.473,0-6.393,2.385-7.229,5.602c0.337,0.238,0.572,0.613,0.572,1.057c0,0.658-0.494,1.184-1.125,1.281
			c-0.061,0.025-0.125,0.039-0.195,0.039v10.875c1.19-3.369,4.396-5.793,8.167-5.793s6.979,2.424,8.168,5.793
			c1.189-3.369,4.396-5.793,8.167-5.793c0.192,0,0.354,0.111,0.438,0.27c0.357-1.703,0.549-3.467,0.549-5.275
			c0-2.838-0.479-5.561-1.334-8.111C61.586,35.141,61.514,35.164,61.433,35.164z"/>
		<g>
			<path fill="#E5B555" d="M62.439,44.254c-0.084-0.158-0.245-0.27-0.438-0.27c-3.771,0-6.978,2.424-8.167,5.793
				c-1.189-3.369-4.397-5.793-8.168-5.793s-6.978,2.424-8.167,5.793c-1.189-3.369-4.396-5.793-8.168-5.793
				c-3.771,0-6.978,2.424-8.167,5.793c-1.189-3.369-4.396-5.793-8.167-5.793c-0.192,0-0.354,0.111-0.438,0.27
				c-0.297-1.412-0.472-2.867-0.525-4.354c-0.004,0.193-0.023,0.383-0.023,0.578c0,1.809,0.191,3.572,0.549,5.275
				c0.084-0.158,0.245-0.27,0.438-0.27c3.771,0,6.978,2.424,8.167,5.793c1.189-3.369,4.396-5.793,8.167-5.793
				c3.771,0,6.979,2.424,8.168,5.793c1.189-3.369,4.396-5.793,8.167-5.793s6.979,2.424,8.168,5.793
				c1.189-3.369,4.396-5.793,8.167-5.793c0.192,0,0.354,0.111,0.438,0.27c0.357-1.703,0.549-3.467,0.549-5.275
				c0-0.195-0.02-0.385-0.023-0.578C62.911,41.387,62.736,42.842,62.439,44.254z"/>
		</g>
		<g>
			<path fill="#E5B555" d="M62.439,41.307c-0.084-0.158-0.245-0.27-0.438-0.27c-3.771,0-6.978,2.426-8.167,5.795
				c-1.189-3.369-4.397-5.795-8.168-5.795s-6.978,2.426-8.167,5.795c-1.189-3.369-4.396-5.795-8.168-5.795
				c-3.771,0-6.978,2.426-8.167,5.795c-1.189-3.369-4.396-5.795-8.167-5.795c-0.192,0-0.354,0.111-0.438,0.27
				c-0.297-1.41-0.472-2.867-0.525-4.354c-0.004,0.193-0.023,0.385-0.023,0.58c0,1.809,0.191,3.572,0.549,5.273
				c0.084-0.158,0.245-0.27,0.438-0.27c3.771,0,6.978,2.426,8.167,5.795c1.189-3.369,4.396-5.795,8.167-5.795
				c3.771,0,6.979,2.426,8.168,5.795c1.189-3.369,4.396-5.795,8.167-5.795s6.979,2.426,8.168,5.795
				c1.189-3.369,4.396-5.795,8.167-5.795c0.192,0,0.354,0.111,0.438,0.27c0.357-1.701,0.549-3.465,0.549-5.273
				c0-0.195-0.02-0.387-0.023-0.58C62.911,38.439,62.736,39.896,62.439,41.307z"/>
		</g>
		<g>
			<path fill="#E5B555" d="M62.439,38.361c-0.084-0.158-0.245-0.27-0.438-0.27c-3.771,0-6.978,2.424-8.167,5.793
				c-1.189-3.369-4.397-5.793-8.168-5.793s-6.978,2.424-8.167,5.793c-1.189-3.369-4.396-5.793-8.168-5.793
				c-3.771,0-6.978,2.424-8.167,5.793c-1.189-3.369-4.396-5.793-8.167-5.793c-0.192,0-0.354,0.111-0.438,0.27
				c-0.297-1.412-0.472-2.867-0.525-4.354c-0.004,0.193-0.023,0.383-0.023,0.578c0,1.809,0.191,3.572,0.549,5.275
				c0.084-0.158,0.245-0.27,0.438-0.27c3.771,0,6.978,2.424,8.167,5.793c1.189-3.369,4.396-5.793,8.167-5.793
				c3.771,0,6.979,2.424,8.168,5.793c1.189-3.369,4.396-5.793,8.167-5.793s6.979,2.424,8.168,5.793
				c1.189-3.369,4.396-5.793,8.167-5.793c0.192,0,0.354,0.111,0.438,0.27c0.357-1.703,0.549-3.467,0.549-5.275
				c0-0.195-0.02-0.385-0.023-0.578C62.911,35.494,62.736,36.949,62.439,38.361z"/>
		</g>
		<g>
			<line fill="#1BC1A9" x1="29.197" y1="20.188" x2="26.115" y2="20.188"/>
			<line fill="#1BC1A9" x1="35.76" y1="20.188" x2="32.678" y2="20.188"/>
			<line fill="#1BC1A9" x1="42.322" y1="20.188" x2="39.24" y2="20.188"/>
			<line fill="#1BC1A9" x1="48.885" y1="20.188" x2="45.803" y2="20.188"/>
		</g>
		<g>
			<g>
				<g>
					<path fill="#E83862" d="M13.567,34.664c4.405,0,7.978,3.572,7.978,7.979"/>
					<path fill="#E83862" d="M29.522,34.664c-4.406,0-7.978,3.572-7.978,7.979"/>
				</g>
				<circle fill="#1BC1A9" cx="21.544" cy="41.822" r="0.82"/>
			</g>
			<g>
				<g>
					<path fill="#E83862" d="M29.522,34.664c4.405,0,7.978,3.572,7.978,7.979"/>
					<path fill="#C61E4E" d="M45.477,34.664c-4.405,0-7.977,3.572-7.977,7.979"/>
				</g>
				<circle fill="#1BC1A9" cx="37.5" cy="41.822" r="0.82"/>
			</g>
			<g>
				<g>
					<path fill="#C61E4E" d="M45.477,34.664c4.406,0,7.979,3.572,7.979,7.979"/>
					<path fill="#C61E4E" d="M61.433,34.664c-4.406,0-7.978,3.572-7.978,7.979"/>
				</g>
				<circle fill="#1BC1A9" cx="53.455" cy="41.822" r="0.82"/>
			</g>
		</g>
		<g>
			<g>
				<g>
					<path fill="#109BAD" d="M12.998,48.725c4.51,0,8.167,3.656,8.167,8.168"/>
					<path fill="#109BAD" d="M29.332,48.725c-4.511,0-8.167,3.656-8.167,8.168"/>
				</g>
				<circle fill="#1BC1A9" cx="21.165" cy="56.053" r="0.839"/>
			</g>
			<g>
				<g>
					<path fill="#109BAD" d="M29.332,48.725c4.512,0,8.168,3.656,8.168,8.168"/>
					<path fill="#109BAD" d="M45.667,48.725c-4.511,0-8.167,3.656-8.167,8.168"/>
				</g>
				<circle fill="#1BC1A9" cx="37.5" cy="56.053" r="0.84"/>
			</g>
			<g>
				<g>
					<path fill="#109BAD" d="M45.667,48.725c4.511,0,8.168,3.656,8.168,8.168"/>
					<path fill="#109BAD" d="M62.002,48.725c-4.511,0-8.167,3.656-8.167,8.168"/>
				</g>
				<circle fill="#1BC1A9" cx="53.835" cy="56.053" r="0.839"/>
			</g>
		</g>
		<line fill="#1BC1A9" x1="37.5" y1="6.291" x2="37.5" y2="11.57"/>
		<line fill="#1BC1A9" x1="40.139" y1="11.57" x2="34.861" y2="11.57"/>
	</g>
	<g>
		
			<path fill="none" stroke="#093260" stroke-width="1.5" stroke-linecap="round" stroke-linejoin="round" stroke-miterlimit="10" d="
			M48.559,20.25v-5.705H26.441v5.705c-8.539,4.117-14.43,12.855-14.43,22.969c0,14.078,11.411,25.49,25.488,25.49
			c14.078,0,25.488-11.412,25.488-25.49C62.988,33.105,57.098,24.367,48.559,20.25z"/>
		<g>
			
				<line fill="none" stroke="#093260" stroke-width="1.5" stroke-linecap="round" stroke-linejoin="round" stroke-miterlimit="10" x1="29.197" y1="20.188" x2="26.115" y2="20.188"/>
			
				<line fill="none" stroke="#093260" stroke-width="1.5" stroke-linecap="round" stroke-linejoin="round" stroke-miterlimit="10" x1="35.76" y1="20.188" x2="32.678" y2="20.188"/>
			
				<line fill="none" stroke="#093260" stroke-width="1.5" stroke-linecap="round" stroke-linejoin="round" stroke-miterlimit="10" x1="42.322" y1="20.188" x2="39.24" y2="20.188"/>
			
				<line fill="none" stroke="#093260" stroke-width="1.5" stroke-linecap="round" stroke-linejoin="round" stroke-miterlimit="10" x1="48.885" y1="20.188" x2="45.803" y2="20.188"/>
		</g>
		<g>
			<g>
				<g>
					
						<path fill="none" stroke="#093260" stroke-width="1.5" stroke-linecap="round" stroke-linejoin="round" stroke-miterlimit="10" d="
						M13.567,34.664c4.405,0,7.978,3.572,7.978,7.979"/>
					
						<path fill="none" stroke="#093260" stroke-width="1.5" stroke-linecap="round" stroke-linejoin="round" stroke-miterlimit="10" d="
						M29.522,34.664c-4.406,0-7.978,3.572-7.978,7.979"/>
				</g>
				
					<circle fill="none" stroke="#093260" stroke-width="1.5" stroke-linecap="round" stroke-linejoin="round" stroke-miterlimit="10" cx="21.544" cy="41.822" r="0.82"/>
			</g>
			<g>
				<g>
					
						<path fill="none" stroke="#093260" stroke-width="1.5" stroke-linecap="round" stroke-linejoin="round" stroke-miterlimit="10" d="
						M29.522,34.664c4.405,0,7.978,3.572,7.978,7.979"/>
					
						<path fill="none" stroke="#093260" stroke-width="1.5" stroke-linecap="round" stroke-linejoin="round" stroke-miterlimit="10" d="
						M45.477,34.664c-4.405,0-7.977,3.572-7.977,7.979"/>
				</g>
				
					<circle fill="none" stroke="#093260" stroke-width="1.5" stroke-linecap="round" stroke-linejoin="round" stroke-miterlimit="10" cx="37.5" cy="41.822" r="0.82"/>
			</g>
			<g>
				<g>
					
						<path fill="none" stroke="#093260" stroke-width="1.5" stroke-linecap="round" stroke-linejoin="round" stroke-miterlimit="10" d="
						M45.477,34.664c4.406,0,7.979,3.572,7.979,7.979"/>
					
						<path fill="none" stroke="#093260" stroke-width="1.5" stroke-linecap="round" stroke-linejoin="round" stroke-miterlimit="10" d="
						M61.433,34.664c-4.406,0-7.978,3.572-7.978,7.979"/>
				</g>
				
					<circle fill="none" stroke="#093260" stroke-width="1.5" stroke-linecap="round" stroke-linejoin="round" stroke-miterlimit="10" cx="53.455" cy="41.822" r="0.82"/>
			</g>
		</g>
		<g>
			<g>
				<g>
					
						<path fill="none" stroke="#093260" stroke-width="1.5" stroke-linecap="round" stroke-linejoin="round" stroke-miterlimit="10" d="
						M12.998,48.725c4.51,0,8.167,3.656,8.167,8.168"/>
					
						<path fill="none" stroke="#093260" stroke-width="1.5" stroke-linecap="round" stroke-linejoin="round" stroke-miterlimit="10" d="
						M29.332,48.725c-4.511,0-8.167,3.656-8.167,8.168"/>
				</g>
				
					<circle fill="none" stroke="#093260" stroke-width="1.5" stroke-linecap="round" stroke-linejoin="round" stroke-miterlimit="10" cx="21.165" cy="56.053" r="0.839"/>
			</g>
			<g>
				<g>
					
						<path fill="none" stroke="#093260" stroke-width="1.5" stroke-linecap="round" stroke-linejoin="round" stroke-miterlimit="10" d="
						M29.332,48.725c4.512,0,8.168,3.656,8.168,8.168"/>
					
						<path fill="none" stroke="#093260" stroke-width="1.5" stroke-linecap="round" stroke-linejoin="round" stroke-miterlimit="10" d="
						M45.667,48.725c-4.511,0-8.167,3.656-8.167,8.168"/>
				</g>
				
					<circle fill="none" stroke="#093260" stroke-width="1.5" stroke-linecap="round" stroke-linejoin="round" stroke-miterlimit="10" cx="37.5" cy="56.053" r="0.84"/>
			</g>
			<g>
				<g>
					
						<path fill="none" stroke="#093260" stroke-width="1.5" stroke-linecap="round" stroke-linejoin="round" stroke-miterlimit="10" d="
						M45.667,48.725c4.511,0,8.168,3.656,8.168,8.168"/>
					
						<path fill="none" stroke="#093260" stroke-width="1.5" stroke-linecap="round" stroke-linejoin="round" stroke-miterlimit="10" d="
						M62.002,48.725c-4.511,0-8.167,3.656-8.167,8.168"/>
				</g>
				
					<circle fill="none" stroke="#093260" stroke-width="1.5" stroke-linecap="round" stroke-linejoin="round" stroke-miterlimit="10" cx="53.835" cy="56.053" r="0.839"/>
			</g>
		</g>
		
			<line fill="none" stroke="#093260" stroke-width="1.5" stroke-linecap="round" stroke-linejoin="round" stroke-miterlimit="10" x1="37.5" y1="6.291" x2="37.5" y2="11.57"/>
		
			<line fill="none" stroke="#093260" stroke-width="1.5" stroke-linecap="round" stroke-linejoin="round" stroke-miterlimit="10" x1="40.139" y1="11.57" x2="34.861" y2="11.57"/>
	</g>
</g>
</svg>
